<svg version="1.1" xmlns="http://www.w3.org/2000/svg" style="display: block;" viewBox="74.24 670.21 1901.5 709.9" preserveAspectRatio="xMidYMid meet" xmlns:c2pa="http://c2pa.org/manifest"><metadata><c2pa:manifest>AAAy2mp1bWIAAAAeanVtZGMycGEAEQAQgAAAqgA4m3EDYzJwYQAAADK0anVtYgAAAEdqdW1kYzJtYQARABCAAACqADibcQN1cm46YzJwYTpkNDc3ZGYzZC05YWQzLTRhYzUtYjY0NC0zNzYwZDYzMDAyYjIAAAACyWp1bWIAAAApanVtZGMyYXMAEQAQgAAAqgA4m3EDYzJwYS5hc3NlcnRpb25zAAAAASlqdW1iAAAAQWp1bWRjYm9yABEAEIAAAKoAOJtxE2MycGEuYWN0aW9ucy52MgAAAAAYYzJzaF3hs5DB0jgPb45U3IYvAUQAAADgY2JvcqJnYWN0aW9uc4GkZmFjdGlvbmxjMnBhLmNyZWF0ZWRkd2hlbsB4IDIwMjYtMDgtMTRUMTk6NTk6NDguNDY5MzE5KzAwOjAwbXNvZnR3YXJlQWdlbnShZG5hbWVuZmFsLWFpL3JlY3JhZnRxZGlnaXRhbFNvdXJjZVR5cGV4Rmh0dHA6Ly9jdi5pcHRjLm9yZy9uZXdzY29kZXMvZGlnaXRhbHNvdXJjZXR5cGUvdHJhaW5lZEFsZ29yaXRobWljTWVkaWFyYWxsQWN0aW9uc0luY2x1ZGVk9QAAAKpqdW1iAAAAPWp1bWRjYm9yABEAEIAAAKoAOJtxE2FpLmZhbC5pbmZvAAAAABhjMnNoIgGLBWCgLUJokM1iE84vsgAAAGVjYm9yomhlbmRwb2ludHggZmFsLWFpL3JlY3JhZnQvdjQvdGV4dC10by12ZWN0b3JqcmVxdWVzdF9pZHgkMDFhMDAxZGItYjczMC03MDcxLWEzNDktZjNjMjVmNTBkMmZjAAAAxWp1bWIAAABAanVtZGNib3IAEQAQgAAAqgA4m3ETYzJwYS5oYXNoLmRhdGEAAAAAGGMyc2hNlEO0nsp2LGKuVa+wEpkWAAAAfWNib3KlamV4Y2x1c2lvbnOBomVzdGFydBjbZmxlbmd0aBlD0GRuYW1lbmp1bWJmIG1hbmlmZXN0Y2FsZ2ZzaGEyNTZkaGFzaFggrc5MS7Q5B+MCZroqhAr/V1JQPjhApaDtscmyx4Wb7KNjcGFkSgAAAAAAAAAAAAAAAAJKanVtYgAAACdqdW1kYzJjbAARABCAAACqADibcQNjMnBhLmNsYWltLnYyAAAAAhtjYm9ypmppbnN0YW5jZUlEeCx4bXA6aWlkOjI4ZWU1NTVmLTFkZGYtNDAyNS05ZjdiLTljNTczZjBmMjhjYnRjbGFpbV9nZW5lcmF0b3JfaW5mb6JkbmFtZW5mYWwtYWkvcmVjcmFmdHdvcmcuY29udGVudGF1dGguYzJwYV9yc2YwLjc5LjBpc2lnbmF0dXJleE1zZWxmI2p1bWJmPS9jMnBhL3VybjpjMnBhOmQ0NzdkZjNkLTlhZDMtNGFjNS1iNjQ0LTM3NjBkNjMwMDJiMi9jMnBhLnNpZ25hdHVyZXJjcmVhdGVkX2Fzc2VydGlvbnOBomN1cmx4KXNlbGYjanVtYmY9YzJwYS5hc3NlcnRpb25zL2MycGEuaGFzaC5kYXRhZGhhc2hYIKaUC0u6MRofOc/zpai6AVySs6zywSY6FSOG0bgeBg11c2dhdGhlcmVkX2Fzc2VydGlvbnOComN1cmx4KnNlbGYjanVtYmY9YzJwYS5hc3NlcnRpb25zL2MycGEuYWN0aW9ucy52MmRoYXNoWCBAVOnwOXrUU9zSYieuGFejX0F6d3fEIOIeKVEBx33Vj6JjdXJseCZzZWxmI2p1bWJmPWMycGEuYXNzZXJ0aW9ucy9haS5mYWwuaW5mb2RoYXNoWCDOW85/NRJD3l42mr7f6YMNxcAOHGhnhA4cg4EXCq41vGNhbGdmc2hhMjU2AAAtUmp1bWIAAAAoanVtZGMyY3MAEQAQgAAAqgA4m3EDYzJwYS5zaWduYXR1cmUAAAAtImNib3LShFkEL6IBJhghglkCCzCCAgcwggGuoAMCAQICFAmcXEpOKhLmQXEKcvNpBsLGeWWKMAoGCCqGSM49BAMCMFYxJTAjBgNVBAoMHGZhbCAtIEZlYXR1cmVzICYgTGFiZWxzIEluYy4xLTArBgNVBAMMJGZhbCAtIEZlYXR1cmVzICYgTGFiZWxzIEluYy4gUm9vdCBDQTAeFw0yNjA2MTAwNzA5MTRaFw0yOTA2MDkwNzA5MTRaMDgxJTAjBgNVBAoMHGZhbCAtIEZlYXR1cmVzICYgTGFiZWxzIEluYy4xDzANBgNVBAMMBmZhbC5haTBZMBMGByqGSM49AgEGCCqGSM49AwEHA0IABJYIBHBbvGMeQJqbn5RynlsS02Nbd0rrHeNiWXvgDawK0IqMqUtQGevJwCvvWmaQ/dxvTCAul0f4lMYp0/W8MD6jeDB2MAwGA1UdEwEB/wQCMAAwDgYDVR0PAQH/BAQDAgbAMBYGA1UdJQEB/wQMMAoGCCsGAQUFBwMEMB0GA1UdDgQWBBTBxCGPW1glYAo4GmEw5Z2c0e5LPjAfBgNVHSMEGDAWgBS1ZZtrH8P3oty+qXYhx1pXekZ9RTAKBggqhkjOPQQDAgNHADBEAiBfGI6nEIoad538lAqp4+ZvmB/9+MrG1/GxBo1hsB1HUAIgCtCfvYAxCzdeRGBPkYcTsOikejqlS3d5Jqo5VeNlBjFZAhgwggIUMIIBuqADAgECAhQg+n4CZLHf0QbrCA1KW4cx4hYEeTAKBggqhkjOPQQDAjBWMSUwIwYDVQQKDBxmYWwgLSBGZWF0dXJlcyAmIExhYmVscyBJbmMuMS0wKwYDVQQDDCRmYWwgLSBGZWF0dXJlcyAmIExhYmVscyBJbmMuIFJvb3QgQ0EwHhcNMjYwNjEwMDcwOTE0WhcNMjkwNjA5MDcwOTE0WjBWMSUwIwYDVQQKDBxmYWwgLSBGZWF0dXJlcyAmIExhYmVscyBJbmMuMS0wKwYDVQQDDCRmYWwgLSBGZWF0dXJlcyAmIExhYmVscyBJbmMuIFJvb3QgQ0EwWTATBgcqhkjOPQIBBggqhkjOPQMBBwNCAAR6V2i6BYfEjxqv0fCw45KXGqVgyDSp/XdPlzs9mVI/p4pU4jQ8Z0TyQTJyrcHuTUU722rMvcrlEzAGJO7c29uMo2YwZDASBgNVHRMBAf8ECDAGAQH/AgEAMA4GA1UdDwEB/wQEAwIBhjAdBgNVHQ4EFgQUtWWbax/D96Lcvql2IcdaV3pGfUUwHwYDVR0jBBgwFoAUtWWbax/D96Lcvql2IcdaV3pGfUUwCgYIKoZIzj0EAwIDSAAwRQIhAJXMGhEek1wUZ6jqyceIzqtqsRF37LKgwG4XrKIVMcqTAiASTov708jwQJd50GUz3T5b6mn2xZ7cvcWQnwS0sMiQ7qFjcGFkWSibAAAAAAAAAAAAAAAAAAAAAAAAAAAAAAAAAAAAAAAAAAAAAAAAAAAAAAAAAAAAAAAAAAAAAAAAAAAAAAAAAAAAAAAAAAAAAAAAAAAAAAAAAAAAAAAAAAAAAAAAAAAAAAAAAAAAAAAAAAAAAAAAAAAAAAAAAAAAAAAAAAAAAAAAAAAAAAAAAAAAAAAAAAAAAAAAAAAAAAAAAAAAAAAAAAAAAAAAAAAAAAAAAAAAAAAAAAAAAAAAAAAAAAAAAAAAAAAAAAAAAAAAAAAAAAAAAAAAAAAAAAAAAAAAAAAAAAAAAAAAAAAAAAAAAAAAAAAAAAAAAAAAAAAAAAAAAAAAAAAAAAAAAAAAAAAAAAAAAAAAAAAAAAAAAAAAAAAAAAAAAAAAAAAAAAAAAAAAAAAAAAAAAAAAAAAAAAAAAAAAAAAAAAAAAAAAAAAAAAAAAAAAAAAAAAAAAAAAAAAAAAAAAAAAAAAAAAAAAAAAAAAAAAAAAAAAAAAAAAAAAAAAAAAAAAAAAAAAAAAAAAAAAAAAAAAAAAAAAAAAAAAAAAAAAAAAAAAAAAAAAAAAAAAAAAAAAAAAAAAAAAAAAAAAAAAAAAAAAAAAAAAAAAAAAAAAAAAAAAAAAAAAAAAAAAAAAAAAAAAAAAAAAAAAAAAAAAAAAAAAAAAAAAAAAAAAAAAAAAAAAAAAAAAAAAAAAAAAAAAAAAAAAAAAAAAAAAAAAAAAAAAAAAAAAAAAAAAAAAAAAAAAAAAAAAAAAAAAAAAAAAAAAAAAAAAAAAAAAAAAAAAAAAAAAAAAAAAAAAAAAAAAAAAAAAAAAAAAAAAAAAAAAAAAAAAAAAAAAAAAAAAAAAAAAAAAAAAAAAAAAAAAAAAAAAAAAAAAAAAAAAAAAAAAAAAAAAAAAAAAAAAAAAAAAAAAAAAAAAAAAAAAAAAAAAAAAAAAAAAAAAAAAAAAAAAAAAAAAAAAAAAAAAAAAAAAAAAAAAAAAAAAAAAAAAAAAAAAAAAAAAAAAAAAAAAAAAAAAAAAAAAAAAAAAAAAAAAAAAAAAAAAAAAAAAAAAAAAAAAAAAAAAAAAAAAAAAAAAAAAAAAAAAAAAAAAAAAAAAAAAAAAAAAAAAAAAAAAAAAAAAAAAAAAAAAAAAAAAAAAAAAAAAAAAAAAAAAAAAAAAAAAAAAAAAAAAAAAAAAAAAAAAAAAAAAAAAAAAAAAAAAAAAAAAAAAAAAAAAAAAAAAAAAAAAAAAAAAAAAAAAAAAAAAAAAAAAAAAAAAAAAAAAAAAAAAAAAAAAAAAAAAAAAAAAAAAAAAAAAAAAAAAAAAAAAAAAAAAAAAAAAAAAAAAAAAAAAAAAAAAAAAAAAAAAAAAAAAAAAAAAAAAAAAAAAAAAAAAAAAAAAAAAAAAAAAAAAAAAAAAAAAAAAAAAAAAAAAAAAAAAAAAAAAAAAAAAAAAAAAAAAAAAAAAAAAAAAAAAAAAAAAAAAAAAAAAAAAAAAAAAAAAAAAAAAAAAAAAAAAAAAAAAAAAAAAAAAAAAAAAAAAAAAAAAAAAAAAAAAAAAAAAAAAAAAAAAAAAAAAAAAAAAAAAAAAAAAAAAAAAAAAAAAAAAAAAAAAAAAAAAAAAAAAAAAAAAAAAAAAAAAAAAAAAAAAAAAAAAAAAAAAAAAAAAAAAAAAAAAAAAAAAAAAAAAAAAAAAAAAAAAAAAAAAAAAAAAAAAAAAAAAAAAAAAAAAAAAAAAAAAAAAAAAAAAAAAAAAAAAAAAAAAAAAAAAAAAAAAAAAAAAAAAAAAAAAAAAAAAAAAAAAAAAAAAAAAAAAAAAAAAAAAAAAAAAAAAAAAAAAAAAAAAAAAAAAAAAAAAAAAAAAAAAAAAAAAAAAAAAAAAAAAAAAAAAAAAAAAAAAAAAAAAAAAAAAAAAAAAAAAAAAAAAAAAAAAAAAAAAAAAAAAAAAAAAAAAAAAAAAAAAAAAAAAAAAAAAAAAAAAAAAAAAAAAAAAAAAAAAAAAAAAAAAAAAAAAAAAAAAAAAAAAAAAAAAAAAAAAAAAAAAAAAAAAAAAAAAAAAAAAAAAAAAAAAAAAAAAAAAAAAAAAAAAAAAAAAAAAAAAAAAAAAAAAAAAAAAAAAAAAAAAAAAAAAAAAAAAAAAAAAAAAAAAAAAAAAAAAAAAAAAAAAAAAAAAAAAAAAAAAAAAAAAAAAAAAAAAAAAAAAAAAAAAAAAAAAAAAAAAAAAAAAAAAAAAAAAAAAAAAAAAAAAAAAAAAAAAAAAAAAAAAAAAAAAAAAAAAAAAAAAAAAAAAAAAAAAAAAAAAAAAAAAAAAAAAAAAAAAAAAAAAAAAAAAAAAAAAAAAAAAAAAAAAAAAAAAAAAAAAAAAAAAAAAAAAAAAAAAAAAAAAAAAAAAAAAAAAAAAAAAAAAAAAAAAAAAAAAAAAAAAAAAAAAAAAAAAAAAAAAAAAAAAAAAAAAAAAAAAAAAAAAAAAAAAAAAAAAAAAAAAAAAAAAAAAAAAAAAAAAAAAAAAAAAAAAAAAAAAAAAAAAAAAAAAAAAAAAAAAAAAAAAAAAAAAAAAAAAAAAAAAAAAAAAAAAAAAAAAAAAAAAAAAAAAAAAAAAAAAAAAAAAAAAAAAAAAAAAAAAAAAAAAAAAAAAAAAAAAAAAAAAAAAAAAAAAAAAAAAAAAAAAAAAAAAAAAAAAAAAAAAAAAAAAAAAAAAAAAAAAAAAAAAAAAAAAAAAAAAAAAAAAAAAAAAAAAAAAAAAAAAAAAAAAAAAAAAAAAAAAAAAAAAAAAAAAAAAAAAAAAAAAAAAAAAAAAAAAAAAAAAAAAAAAAAAAAAAAAAAAAAAAAAAAAAAAAAAAAAAAAAAAAAAAAAAAAAAAAAAAAAAAAAAAAAAAAAAAAAAAAAAAAAAAAAAAAAAAAAAAAAAAAAAAAAAAAAAAAAAAAAAAAAAAAAAAAAAAAAAAAAAAAAAAAAAAAAAAAAAAAAAAAAAAAAAAAAAAAAAAAAAAAAAAAAAAAAAAAAAAAAAAAAAAAAAAAAAAAAAAAAAAAAAAAAAAAAAAAAAAAAAAAAAAAAAAAAAAAAAAAAAAAAAAAAAAAAAAAAAAAAAAAAAAAAAAAAAAAAAAAAAAAAAAAAAAAAAAAAAAAAAAAAAAAAAAAAAAAAAAAAAAAAAAAAAAAAAAAAAAAAAAAAAAAAAAAAAAAAAAAAAAAAAAAAAAAAAAAAAAAAAAAAAAAAAAAAAAAAAAAAAAAAAAAAAAAAAAAAAAAAAAAAAAAAAAAAAAAAAAAAAAAAAAAAAAAAAAAAAAAAAAAAAAAAAAAAAAAAAAAAAAAAAAAAAAAAAAAAAAAAAAAAAAAAAAAAAAAAAAAAAAAAAAAAAAAAAAAAAAAAAAAAAAAAAAAAAAAAAAAAAAAAAAAAAAAAAAAAAAAAAAAAAAAAAAAAAAAAAAAAAAAAAAAAAAAAAAAAAAAAAAAAAAAAAAAAAAAAAAAAAAAAAAAAAAAAAAAAAAAAAAAAAAAAAAAAAAAAAAAAAAAAAAAAAAAAAAAAAAAAAAAAAAAAAAAAAAAAAAAAAAAAAAAAAAAAAAAAAAAAAAAAAAAAAAAAAAAAAAAAAAAAAAAAAAAAAAAAAAAAAAAAAAAAAAAAAAAAAAAAAAAAAAAAAAAAAAAAAAAAAAAAAAAAAAAAAAAAAAAAAAAAAAAAAAAAAAAAAAAAAAAAAAAAAAAAAAAAAAAAAAAAAAAAAAAAAAAAAAAAAAAAAAAAAAAAAAAAAAAAAAAAAAAAAAAAAAAAAAAAAAAAAAAAAAAAAAAAAAAAAAAAAAAAAAAAAAAAAAAAAAAAAAAAAAAAAAAAAAAAAAAAAAAAAAAAAAAAAAAAAAAAAAAAAAAAAAAAAAAAAAAAAAAAAAAAAAAAAAAAAAAAAAAAAAAAAAAAAAAAAAAAAAAAAAAAAAAAAAAAAAAAAAAAAAAAAAAAAAAAAAAAAAAAAAAAAAAAAAAAAAAAAAAAAAAAAAAAAAAAAAAAAAAAAAAAAAAAAAAAAAAAAAAAAAAAAAAAAAAAAAAAAAAAAAAAAAAAAAAAAAAAAAAAAAAAAAAAAAAAAAAAAAAAAAAAAAAAAAAAAAAAAAAAAAAAAAAAAAAAAAAAAAAAAAAAAAAAAAAAAAAAAAAAAAAAAAAAAAAAAAAAAAAAAAAAAAAAAAAAAAAAAAAAAAAAAAAAAAAAAAAAAAAAAAAAAAAAAAAAAAAAAAAAAAAAAAAAAAAAAAAAAAAAAAAAAAAAAAAAAAAAAAAAAAAAAAAAAAAAAAAAAAAAAAAAAAAAAAAAAAAAAAAAAAAAAAAAAAAAAAAAAAAAAAAAAAAAAAAAAAAAAAAAAAAAAAAAAAAAAAAAAAAAAAAAAAAAAAAAAAAAAAAAAAAAAAAAAAAAAAAAAAAAAAAAAAAAAAAAAAAAAAAAAAAAAAAAAAAAAAAAAAAAAAAAAAAAAAAAAAAAAAAAAAAAAAAAAAAAAAAAAAAAAAAAAAAAAAAAAAAAAAAAAAAAAAAAAAAAAAAAAAAAAAAAAAAAAAAAAAAAAAAAAAAAAAAAAAAAAAAAAAAAAAAAAAAAAAAAAAAAAAAAAAAAAAAAAAAAAAAAAAAAAAAAAAAAAAAAAAAAAAAAAAAAAAAAAAAAAAAAAAAAAAAAAAAAAAAAAAAAAAAAAAAAAAAAAAAAAAAAAAAAAAAAAAAAAAAAAAAAAAAAAAAAAAAAAAAAAAAAAAAAAAAAAAAAAAAAAAAAAAAAAAAAAAAAAAAAAAAAAAAAAAAAAAAAAAAAAAAAAAAAAAAAAAAAAAAAAAAAAAAAAAAAAAAAAAAAAAAAAAAAAAAAAAAAAAAAAAAAAAAAAAAAAAAAAAAAAAAAAAAAAAAAAAAAAAAAAAAAAAAAAAAAAAAAAAAAAAAAAAAAAAAAAAAAAAAAAAAAAAAAAAAAAAAAAAAAAAAAAAAAAAAAAAAAAAAAAAAAAAAAAAAAAAAAAAAAAAAAAAAAAAAAAAAAAAAAAAAAAAAAAAAAAAAAAAAAAAAAAAAAAAAAAAAAAAAAAAAAAAAAAAAAAAAAAAAAAAAAAAAAAAAAAAAAAAAAAAAAAAAAAAAAAAAAAAAAAAAAAAAAAAAAAAAAAAAAAAAAAAAAAAAAAAAAAAAAAAAAAAAAAAAAAAAAAAAAAAAAAAAAAAAAAAAAAAAAAAAAAAAAAAAAAAAAAAAAAAAAAAAAAAAAAAAAAAAAAAAAAAAAAAAAAAAAAAAAAAAAAAAAAAAAAAAAAAAAAAAAAAAAAAAAAAAAAAAAAAAAAAAAAAAAAAAAAAAAAAAAAAAAAAAAAAAAAAAAAAAAAAAAAAAAAAAAAAAAAAAAAAAAAAAAAAAAAAAAAAAAAAAAAAAAAAAAAAAAAAAAAAAAAAAAAAAAAAAAAAAAAAAAAAAAAAAAAAAAAAAAAAAAAAAAAAAAAAAAAAAAAAAAAAAAAAAAAAAAAAAAAAAAAAAAAAAAAAAAAAAAAAAAAAAAAAAAAAAAAAAAAAAAAAAAAAAAAAAAAAAAAAAAAAAAAAAAAAAAAAAAAAAAAAAAAAAAAAAAAAAAAAAAAAAAAAAAAAAAAAAAAAAAAAAAAAAAAAAAAAAAAAAAAAAAAAAAAAAAAAAAAAAAAAAAAAAAAAAAAAAAAAAAAAAAAAAAAAAAAAAAAAAAAAAAAAAAAAAAAAAAAAAAAAAAAAAAAAAAAAAAAAAAAAAAAAAAAAAAAAAAAAAAAAAAAAAAAAAAAAAAAAAAAAAAAAAAAAAAAAAAAAAAAAAAAAAAAAAAAAAAAAAAAAAAAAAAAAAAAAAAAAAAAAAAAAAAAAAAAAAAAAAAAAAAAAAAAAAAAAAAAAAAAAAAAAAAAAAAAAAAAAAAAAAAAAAAAAAAAAAAAAAAAAAAAAAAAAAAAAAAAAAAAAAAAAAAAAAAAAAAAAAAAAAAAAAAAAAAAAAAAAAAAAAAAAAAAAAAAAAAAAAAAAAAAAAAAAAAAAAAAAAAAAAAAAAAAAAAAAAAAAAAAAAAAAAAAAAAAAAAAAAAAAAAAAAAAAAAAAAAAAAAAAAAAAAAAAAAAAAAAAAAAAAAAAAAAAAAAAAAAAAAAAAAAAAAAAAAAAAAAAAAAAAAAAAAAAAAAAAAAAAAAAAAAAAAAAAAAAAAAAAAAAAAAAAAAAAAAAAAAAAAAAAAAAAAAAAAAAAAAAAAAAAAAAAAAAAAAAAAAAAAAAAAAAAAAAAAAAAAAAAAAAAAAAAAAAAAAAAAAAAAAAAAAAAAAAAAAAAAAAAAAAAAAAAAAAAAAAAAAAAAAAAAAAAAAAAAAAAAAAAAAAAAAAAAAAAAAAAAAAAAAAAAAAAAAAAAAAAAAAAAAAAAAAAAAAAAAAAAAAAAAAAAAAAAAAAAAAAAAAAAAAAAAAAAAAAAAAAAAAAAAAAAAAAAAAAAAAAAAAAAAAAAAAAAAAAAAAAAAAAAAAAAAAAAAAAAAAAAAAAAAAAAAAAAAAAAAAAAAAAAAAAAAAAAAAAAAAAAAAAAAAAAAAAAAAAAAAAAAAAAAAAAAAAAAAAAAAAAAAAAAAAAAAAAAAAAAAAAAAAAAAAAAAAAAAAAAAAAAAAAAAAAAAAAAAAAAAAAAAAAAAAAAAAAAAAAAAAAAAAAAAAAAAAAAAAAAAAAAAAAAAAAAAAAAAAAAAAAAAAAAAAAAAAAAAAAAAAAAAAAAAAAAAAAAAAAAAAAAAAAAAAAAAAAAAAAAAAAAAAAAAAAAAAAAAAAAAAAAAAAAAAAAAAAAAAAAAAAAAAAAAAAAAAAAAAAAAAAAAAAAAAAAAAAAAAAAAAAAAAAAAAAAAAAAAAAAAAAAAAAAAAAAAAAAAAAAAAAAAAAAAAAAAAAAAAAAAAAAAAAAAAAAAAAAAAAAAAAAAAAAAAAAAAAAAAAAAAAAAAAAAAAAAAAAAAAAAAAAAAAAAAAAAAAAAAAAAAAAAAAAAAAAAAAAAAAAAAAAAAAAAAAAAAAAAAAAAAAAAAAAAAAAAAAAAAAAAAAAAAAAAAAAAAAAAAAAAAAAAAAAAAAAAAAAAAAAAAAAAAAAAAAAAAAAAAAAAAAAAAAAAAAAAAAAAAAAAAAAAAAAAAAAAAAAAAAAAAAAAAAAAAAAAAAAAAAAAAAAAAAAAAAAAAAAAAAAAAAAAAAAAAAAAAAAAAAAAAAAAAAAAAAAAAAAAAAAAAAAAAAAAAAAAAAAAAAAAAAAAAAAAAAAAAAAAAAAAAAAAAAAAAAAAAAAAAAAAAAAAAAAAAAAAAAAAAAAAAAAAAAAAAAAAAAAAAAAAAAAAAAAAAAAAAAAAAAAAAAAAAAAAAAAAAAAAAAAAAAAAAAAAAAAAAAAAAAAAAAAAAAAAAAAAAAAAAAAAAAAAAAAAAAAAAAAAAAAAAAAAAAAAAAAAAAAAAAAAAAAAAAAAAAAAAAAAAAAAAAAAAAAAAAAAAAAAAAAAAAAAAAAAAAAAAAAAAAAAAAAAAAAAAAAAAAAAAAAAAAAAAAAAAAAAAAAAAAAAAAAAAAAAAAAAAAAAAAAAAAAAAAAAAAAAAAAAAAAAAAAAAAAAAAAAAAAAAAAAAAAAAAAAAAAAAAAAAAAAAAAAAAAAAAAAAAAAAAAAAAAAAAAAAAAAAAAAAAAAAAAAAAAAAAAAAAAAAAAAAAAAAAAAAAAAAAAAAAAAAAAAAAAAAAAAAAAAAAAAAAAAAAAAAAAAAAAAAAAAAAAAAAAAAAAAAAAAAAAAAAAAAAAAAAAAAAAAAAAAAAAAAAAAAAAAAAAAAAAAAAAAAAAAAAAAAAAAAAAAAAAAAAAAAAAAAAAAAAAAAAAAAAAAAAAAAAAAAAAAAAAAAAAAAAAAAAAAAAAAAAAAAAAAAAAAAAAAAAAAAAAAAAAAAAAAAAAAAAAAAAAAAAAAAAAAAAAAAAAAAAAAAAAAAAAAAAAAAAAAAAAAAAAAAAAAAAAAAAAAAAAAAAAAAAAAAAAAAAAAAAAAAAAAAAAAAAAAAAAAAAAAAAAAAAAAAAAAAAAAAAAAAAAAAAAAAAAAAAAAAAAAAAAAAAAAAAAAAAAAAAAAAAAAAAAAAAAAAAAAAAAAAAAAAAAAAAAAAAAAAAAAAAAAAAAAAAAAAAAAAAAAAAAAAAAAAAAAAAAAAAAAAAAAAAAAAAAAAAAAAAAAAAAAAAAAAAAAAAAAAAAAAAAAAAAAAAAAAAAAAAAAAAAAAAAAAAAAAAAAAAAAAAAAAAAAAAAAAAAAAAAAAAAAAAAAAAAAAAAAAAAAAAAAAAAAAAAAAAAAAAAAAAAAAAAAAAAAAAAAAAAAAAAAAAAAAAAAAAAAAAAAAAAAAAAAAAAAAAAAAAAAAAAAAAAAAAAAAAAAAAAAAAAAAAAAAAAAAAAAAAAAAAAAAAAAAAAAAAAAAAAAAAAAAAAAAAAAAAAAAAAAAAAAAAAAAAAAAAAAAAAAAAAAAAAAAAAAAAAAAAAAAAAAAAAAAAAAAAAAAAAAAAAAAAAAAAAAAAAAAAAAAAAAAAAAAAAAAAAAAAAAAAAAAAAAAAAAAAAAAAAAAAAAAAAAAAAAAAAAAAAAAAAAAAAAAAAAAAAAAAAAAAAAAAAAAAAAAAAAAAAAAAAAAAAAAAAAAAAAAAAAAAAAAAAAAAAAAAAAAAAAAAAAAAAAAAAAAAAAAAAAAAAAAAAAAAAAAAAAAAAAAAAAAAAAAAAAAAAAAAAAAAAAAAAAAAAAAAAAAAAAAAAAAAAAAAAAAAAAAAAAAAAAAAAAAAAAAAAAAAAAAAAAAAAAAAAAAAAAAAAAAAAAAAAAAAAAAAAAAAAAAAAAAAAAAAAAAAAAAAAAAAAAAAAAAAAAAAAAAAAAAAAAAAAAAAAAAAAAAAAAAAAAAAAAAAAAAAAAAAAAAAAAAAAAAAAAAAAAAAAAAAAAAAAAAAAAAAAAAAAAAAAAAAAAAAAAAAAAAAAAAAAAAAAAAAAAAAAAAAAAAAAAAAAAAAAAAAAAAAAAAAAAAAAAAAAAAAAAAAAAAAAAAAAAAAAAAAAAAAAAAAAAAAAAAAAAAAAAAAAAAAAAAAAAAAAAAAAAAAAAAAAAAAAAAAAAAAAAAAAAAAAAAAAAAAAAAAAAAAAAAAAAAAAAAAAAAAAAAAAAAAAAAAAAAAAAAAAAAAAAAAAAAAAAAAAAAAAAAAAAAAAAAAAAAAAAAAAAAAAAAAAAAAAAAAAAAAAAAAAAAAAAAAAAAAAAAAAAAAAAAAAAAAAAAAAAAAAAAAAAAAAAAAAAAAAAAAAAAAAAAAAAAAAAAAAAAAAAAAAAAAAAAAAAAAAAAAAAAAAAAAAAAAAAAAAAAAAAAAAAAAAAAAAAAAAAAAAAAAAAAAAAAAAAAAAAAAAAAAAAAAAAAAAAAAAAAAAAAAAAAAAAAAAAAAAAAAAAAAAAAAAAAAAAAAAAAAAAAAAAAAAAAAAAAAAAAAAAAAAAAAAAAAAAAAAAAAAAAAAAAAAAAAAAAAAAAAAAAAAAAAAAAAAAAAAAAAAAAAAAAAAAAAAAAAAAAAAAAAAAAAAAAAAAAAAAAAAAAAAAAAAAAAAAAAAAAAAAAAAAAAAAAAAAAAAAAAAAAAAAAAAAAAAAAAAAAAAAAAAAAAAAAAAAAAAAAAAAAAAAAAAAAAAAAAAAAAAAAAAAAAAAAAAAAAAAAAAAAAAAAAAAAAAAAAAAAAAAAAAAAAAAAAAAAAAAAAAAAAAAAAAAAAAAAAAAAAAAAAAAAAAAAAAAAAAAAAAAAAAAAAAAAAAAAAAAAAAAAAAAAAAAAAAAAAAAAAAAAAAAAAAAAAAAAAAAAAAAAAAAAAAAAAAAAAAAAAAAAAAAAAAAAAAAAAAAAAAAAAAAAAAAAAAAAAAAAAAAAAAAAAAAAAAAAAAAAAAAAAAAAAAAAAAAAAAAAAAAAAAAAAAAAAAAAAAAAAAAAAAAAAAAAAAAAAAAAAAAAAAAAAAAAAAAAAAAAAAAAAAAAAAAAAAAAAAAAAAAAAAAAAAAAAAAAAAAAAAAAAAAAAAAAAAAAAAAAAAAAAAAAAAAAAAAAAAAAAAAAAAAAAAAAAAAAAAAAAAAAAAAAAAAAAAAAAAAAAAAAAAAAAAAAAAAAAAAAAAAAAAAAAAAAAAAAAAAAAAAAAAAAAAAAAAAAAAAAAAAAAAAAAAAAAAAAAAAAAAAAAAAAAAAAAAAAAAAAAAAAAAAAAAAAAAAAAAAAAAAAAAAAAAAAAAAAAAAAAAAAAAAAAAAAAAAAAAAAAAAAAAAAAAAAAAAAAAAAAAAAAAAAAAAAAAAAAAAAAAAAAAAAAAAAAAAAAAAAAAAAAAAAAAAAAAAAAAAAAAAAAAAAAAAAAAAAAAAAAAAAAAAAAAAAAAAAAAAAAAAAAAAAAAAAAAAAAAAAAAAAAAAAAAAAAAAAAAAAAAAAAAAAAAAAAAAAAAAAAAAAAAAAAAAAAAAAAAAAAAAAAAAAAAAAAAAAAAAAAAAAAAAAAAAAAAAAAAAAAAAAAAAAAAAAAAAAAAAAAAAAAAAAAAAAAAAAAAAAAAAAAAAAAAAAAAAAAAAAAAAAAAAAAAAAAAAAAAAAAAAAAAAAAAAAAAAAAAAAAAAAAAAAAAAAAAAAAAAAAAAAAAAAAAAAAAAAAAAAAAAAAAAAAAAAAAAAAAAAAAAAAAAAAAAAAAAAAAAAAAAAAAAAAAAAAAAAAAAAAAAAAAAAAAAAAAAAAAAAAAAAAAAAAAAAAAAAAAAAAAAAAAAAAAAAAAAAAAAAAAAAAAAAAAAAAAAAAAAAAAAAAAAAAAAAAAAAAAAAAAAAAAAAAAAAAAAAAAAAAAAAAAAAAAAAAAAAAAAAAAAAAAAAAAAAAAAAAAAAAAAAAAAAAAAAAAAAAAAAAAAAAAAAAAAAAAAAAAAAAAAAAAAAAAAAAAAAAAAAAAAAAAAAAAAAAAAAAAAAAAAAAAAAAAAAAAAAAAAAAAAAAAAAAAAAAAAAAAAAAAAAAAAAAAAAAAAAAAAAAAAAAAAAAAAAAAAAAAAAAAAAAAAAAAAAAAAAAAAAAAAAAAAAAAAAAAAAAAAAAAAAAAAAAAAAAAAAAAAAAAAAAAAAAAAAAAAAAAAAAAAAAAAAAAAAAAAAAAAAAAAAAAAAAAAAAAAAAAAAAAAAAAAAAAAAAAAAAAAAAAAAAAAAAAAAAAAAAAAAAAAAAAAAAAAAAAAAAAAAAAAAAAAAAAAAAAAAAAAAAAAAAAAAAAAAAAAAAAAAAAAAAAAAAAAAAAAAAAAAAAAAAAAAAAAAAAAAAAAAAAAAAAAAAAAAAAAAAAAAAAAAAAAAAAAAAAAAAAAAAAAAAAAAAAAAAAAAAAAAAAAAAAAAAAAAAAAAAAAAAAAAAAAAAAAAAAAAAAAAAAAAAAAAAAAAAAAAAAAAAAAAAAAAAAAAAAAAAAAAAAAAAAAAAAAAAAAAAAAAAAAAAAAAAAAAAAAAAAAAAAAAAAAAAAAAAAAAAAAAAAAAAAAAAAAAAAAAAAAAAAAAAAAAAAAAAAAAAAAAAAAAAAAAAAAAAAAAAAAAAAAAAAAAAAAAAAAAAAAAAAAAAAAAAAAAAAAAAAAAAAAAAAAAAAAAAAAAAAAAAAAAAAAAAAAAAAAAAAAAAAAAAAAAAAAAAAAAAAAAAAAAAAAAAAAAAAAAAAAAAAAAAAAAAAAAAAAAAAAAAAAAAAAAAAAAAAAAAAAAAAAAAAAAAAAAAAAAAAAAAAAAAAAAAAAAAAAAAAAAAAAAAAAAAAAAAAAAAAAAAAAAAAAAAAAAAAAAAAAAAAAAAAAAAAAAAAAAAAAAAAAAAAAAAAAAAAAAAAAAAAAAAAAAAAAAAAAAAAAAAAAAAAAAAAAAAAAAAAAAAAAAAAAAAAAAAAAAAAAAAAAAAAAAAAAAAAAAAAAAAAAAAAAAAAAAAAAAAAAAAAAAAAAAAAAAAAAAAAAAAAAAAAAAAAAAAAAAAAAAAAAAAAAAAAAAAAAAAAAAAAAAAAAAAAAAAAAAAAAAAAAAAAAAAAAAAAAAAAAAAAAAAAAAAAAAAAAAAAAAAAAAAAAAAAAAAAAAAAAAAAAAAAAAAAAAAAAAAAAAAAAAAAAAAAAAAAAAAAAAAAAAAAAAAAAAAAAAAAAAAAAAAAAAAAAAAAAAAAAAAAAAAAAAAAAAAAAAAAAAAAAAAAAAAAAAAAAAAAAAAAAAAAAAAAAAAAAAAAAAAAAAAAAAAAAAAAAAAAAAAAAAAAAAAAAAAAAAAAAAAAAAAAAAAAAAAAAAAAAAAAAAAAAAAAAAAAAAAAAAAAAAAAAAAAAAAAAAAAAAAAAAAAAAAAAAAAAAAAAAAAAAAAAAAAAAAAAAAAAAAAAAAAAAAAAAAAAAAAAAAAAAAAAAAAAAAAAAAAAAAAAAAAAAAAAAAAAAAAAAAAAAAAAAAAAAAAAAAAAAAAAAAAAAAAAAAAAAAAAAAAAAAAAAAAAAAAAAAAAAAAAAAAAAAAAAAAAAAAAAAAAAAAAAAAAAAAAAAAAAAAAAAAAAAAAAAAAAAAAAAAAAAAAAAAAAAAAAAAAAAAAAAAAAAAAAAAAAAAAAAAAAAAAAAAAAAAAAAAAAAAAAAAAAAAAAAAAAAAAAAAAAAAAAAAAAAAAAAAAAAAAAAAAAAAAAAAAAAAAAAAAAAAAAAAAAAAAAAAAAAAAAAAAAAAAAAAAAAAAAAAAAAAAAAAAAAAAAAAAAAAAAAAAAAAAAAAAAAAAAAAAAAAAAAAAAAAAAAAAAAAAAAAAAAAAAAAAAAAAAAAAAAAAAAAAAAAAAAAAAAAAAAAAAAAAAAAAAAAAAAAAAAAAAAAAAAAAAAAAAAAAAAAAAAAAAAAAAAAAAAAAAAAAAAAAAAAAAAAAAAAAAAAAAAAAAAAAAAAAAAAAAAAAAAAAAAAAAAAAAAAAAAAAAAAAAAAAAAAAAAAAAAAAAAAAAAAAAAAAAAAAAAAAAAAAAAAAAAAAAAAAAAAAAAAAAAAAAAAAAAAAAAAAAAAAAAAAAAAAAAAAAAAAAAAAAAAAAAAAAAAAAAAAAAAAAAAAAAAAAAAAAAAAAAAAAAAAAAAAAAAAAAAAAAAAAAAAAAAAAAAAAAAAAAAAAAAAAAAAAAAAAAAAAAAAAAAAAAAAAAAAAAAAAAAAAAAAAAAAAAAAAAAAAAAAAAAAAAAAAAAAAAAAAAAAAAAAAAAAAAAAAAAAAAAAAAAAAAAAAAAAAAAAAAAAAAAAAAAAAAAAAAAAAAAAAAAAAAAAAAAAAAAAAAAAAAAAAAAAAAAAAAAAAAAAAAAAAAAAAAAAAAAAAAAAAAAAAAAAAAAAAAAAAAAAAAAAAAAAAAAAAAAAAAAAAAAAAAAAAAAAAAAAAAAAAAAAAAAAAAAAAAAAAAAAAAAAAAAAAAAAAAAAAAAAAAAAAAAAAAAAAAAAAAAAAAAAAAAAAAAAAAAAAAAAAAAAAAAAAAAAAAAAAAAAAAAAAAAAAAAAAAAAAAAAAAAAAAAAAAAAAAAAAAAAAAAAAAAAAAAAAAAAAAAAAAAAAAAAAAAAAAAAAAAAAAAAAAAAAAAAAAAAAAAAAAAAAAAAAAAAAAAAAAAAAAAAAAAAAAAAAAAAAAAAAAAAAAAAAAAAAAAAAAAAAAAAAAAAAAAAAAAAAAAAAAAAAAAAAAAAAAAAAAAAAAAAAAAAAAAAAAAAAAAAAAAAAAAAAAAAAAAAAAAAAAAAAAAAAAAAAAAAAAAAAAAAAAAAAAAAAAAAAAAAAAAAAAAAAAAAAAAAAAAAAAAAAAAAAAAAAAAAAAAAAAAAAAAAAAAAAAAAAAAAAAAAAAAAAAAAAAAAAAAAAAAAAAAAAAAAAAAAAAAAAAAAAAAAAAAAAAAAAAAAAAAAAAAAAAAAAAAAAAAAAAAAAAAAAAAAAAAAAAAAAAAAAAAAAAAAAAAAAAAAAAAAAAAAAAAAAAAAAAAAAAA9lhAKyjfAvEnSfw/sgROOf/rucWjuumZSK9ykQzp+OwgFxXisXvRgj+7BMdHS3mgE8JcQngyiSDuFT60SUDuWwrJPA==</c2pa:manifest></metadata>

<path transform="translate(0,0)" fill="rgb(28,58,47)" d="M 503.092 920.524 L 505.155 916.865 L 506.093 917.268 L 506.738 921.953 C 506.143 929.244 506.588 941.44 506.462 949.292 C 506.093 972.216 501.692 994.023 491.603 1014.6 C 473.43 1051.67 435.458 1087.47 392.42 1089.87 C 368.946 1091.18 346.178 1089.23 323.33 1097.43 C 309.047 1102.55 300.455 1108.76 290.43 1120.05 C 263.452 1150.44 277.218 1196.34 271.618 1233.5 C 269.622 1246.74 267.3 1255.71 261.183 1268.1 C 241.831 1307.3 205.608 1333.88 164.994 1347.85 L 164.829 1218.61 C 164.758 1189.5 162.968 1157.66 167.71 1129.46 C 183.025 1038.39 256.299 980.36 347.722 980.489 C 377.138 980.531 412.674 982.684 440.172 973.435 C 466.081 964.721 491.155 945.506 503.092 920.524 z"/>
<path transform="translate(0,0)" fill="rgb(28,58,47)" d="M 1781.64 935.762 C 1812.61 920.167 1835.71 905.527 1865.46 888.625 C 1867.08 987.498 1863.8 1087.23 1865.68 1186.15 C 1865.98 1201.86 1869.71 1210.56 1884.8 1215.57 L 1888.73 1216.1 L 1889.31 1217.27 C 1886.47 1219.2 1886.61 1219.12 1883.31 1220.05 C 1858.49 1227.69 1832.48 1239.17 1808.19 1248.84 C 1807.66 1236.9 1807.83 1223.23 1807.71 1211.15 C 1795.68 1225.83 1784.45 1238.66 1765.18 1243.33 C 1747.63 1247.65 1724.94 1244.01 1709.57 1234.47 C 1655.73 1201.01 1660.18 1111.96 1689.12 1063.99 C 1714.65 1021.68 1759.84 992.567 1806.82 1021.35 C 1806.95 1012.49 1807.21 1003.56 1807.15 994.704 C 1806.98 969.97 1809.26 945.556 1781.64 935.762 z"/>
<path transform="translate(0,0)" fill="rgb(255,255,255)" d="M 1769.96 1021.2 C 1782.86 1021.52 1791.63 1029.37 1797.82 1040.11 C 1802.48 1048.2 1805.5 1057.12 1806.71 1066.38 C 1808.24 1078.82 1808.82 1194.17 1806.58 1199.6 C 1805.39 1202.49 1801.81 1205.03 1799.08 1206.3 C 1789.5 1210.74 1778.86 1208.43 1769.33 1205.29 C 1709.77 1174.95 1713.13 1032.31 1769.96 1021.2 z"/>
<path transform="translate(0,0)" fill="rgb(28,58,47)" d="M 555.984 706.005 C 556.299 704.985 556.677 703.218 557.473 702.483 C 558.295 703.444 558.05 709.867 558.052 711.622 C 557.164 729.154 556.482 742.696 552.697 759.978 C 540.036 817.784 490.915 868.153 430.5 872.841 C 412.337 874.251 393.041 873.324 374.966 876.565 C 313.737 887.709 272.113 928.907 260.124 989.568 C 220.594 1008.96 185.353 1043.23 170.27 1085.05 L 166.771 1086.35 C 166.196 1021.42 160.673 958.849 183.923 897.354 C 196.559 863.212 218.463 833.27 247.175 810.888 C 308.169 764.255 364.366 770.9 435.598 770.525 C 483.346 770.274 537.359 755.595 555.984 706.005 z"/>
<path transform="translate(0,0)" fill="rgb(122,121,125)" d="M 555.984 706.005 C 556.299 704.985 556.677 703.218 557.473 702.483 C 558.295 703.444 558.05 709.867 558.052 711.622 C 557.352 709.753 556.663 707.881 555.984 706.005 z"/>
<path transform="translate(0,0)" fill="rgb(28,58,47)" d="M 1035.54 1008.42 C 1144.88 1003.15 1177.12 1128.57 1117.96 1204.41 C 1098.04 1229.95 1072.63 1241.58 1040.75 1244.99 C 1010.72 1245.28 985.842 1242.21 961.627 1221.94 C 938.495 1201.74 929.407 1174.17 926.666 1144.58 C 921.766 1091.7 944.655 1038.68 995.126 1016.79 C 1008.11 1011.16 1021.38 1009.45 1035.54 1008.42 z"/>
<path transform="translate(0,0)" fill="rgb(255,255,255)" d="M 1008.81 1021.05 C 1076.87 1018.74 1121.09 1216.02 1063.1 1231.58 C 1027.57 1232.69 1000.96 1177.36 992.25 1148.53 C 982.357 1115.76 974.264 1068.65 989.221 1035.94 C 993.077 1027.51 1000.44 1023.65 1008.81 1021.05 z"/>
<path transform="translate(0,0)" fill="rgb(28,58,47)" d="M 1196.31 1010.03 C 1206.41 1010.19 1227.41 1009.43 1236.04 1010.47 C 1221.78 1019.72 1213.13 1023.39 1221.93 1042.47 C 1240.84 1083.47 1260.92 1130.6 1283.12 1169.52 C 1291.8 1151.87 1301.79 1123.53 1309.01 1104.49 C 1296.78 1076.89 1278.46 1028.43 1252.59 1013.64 C 1251.27 1013.49 1248.51 1011.85 1247.14 1011.14 L 1247.34 1010.2 L 1283.72 1010.36 C 1310.88 1010.14 1346.19 1009.08 1372.98 1010.64 C 1354.53 1019.26 1344.21 1025.68 1350.55 1048.13 C 1362.48 1090.39 1386.69 1134.03 1404.81 1173.53 L 1422.28 1129.3 C 1435.91 1094.88 1464.82 1035.23 1418.15 1013.67 L 1414.79 1011.83 L 1415.32 1010.99 L 1420.07 1010.43 C 1435.81 1011.05 1453.1 1010.65 1469 1010.66 C 1477 1010.67 1492.34 1011.05 1499.65 1010.46 L 1505.36 1010.99 L 1505.78 1011.84 C 1504.11 1012.66 1502.42 1013.52 1500.73 1014.29 L 1499.64 1014.76 C 1463.2 1030.92 1441.35 1096.35 1427.12 1132.24 L 1380.73 1251.4 C 1357.41 1204.96 1334.72 1158.21 1312.67 1111.16 C 1293.31 1155.89 1276.94 1206.5 1257.94 1251.69 C 1254.96 1241.97 1248.83 1230.69 1244.3 1221.38 L 1221.18 1173.92 L 1182.52 1094.46 C 1166.66 1061.65 1157.1 1031.01 1122.98 1013.53 C 1120.58 1012.99 1115.61 1011.24 1113.06 1010.43 L 1179.74 1010.43 C 1183.29 1010.37 1193.27 1010.43 1196.31 1010.03 z"/>
<path transform="translate(0,0)" fill="rgb(28,58,47)" d="M 577.159 917.903 C 574.062 916.646 574.213 917.386 572.828 915.352 L 576.919 915.155 L 785.633 914.993 C 789.619 940.468 795.063 985.385 800.554 1008.89 L 798.712 1010.52 C 790.814 985.595 753.586 945.419 728.969 934.057 C 705.172 923.073 696.784 921.631 671.377 925.78 C 670.896 971.604 670.776 1017.43 671.016 1063.26 C 706.736 1064.93 741.895 1063.9 753.017 1023.22 L 756.1 1023.43 C 753.483 1057.38 751.561 1096.45 748.095 1129.84 L 745.179 1131.83 C 737.411 1084.05 719.505 1070.37 671.021 1070.8 L 670.897 1134.68 C 670.834 1183.34 662.549 1215.95 712.277 1240.3 C 714.424 1240.52 714.579 1241.11 714.537 1241.12 C 708.374 1242.91 676.744 1241.5 671.5 1241.53 C 655.222 1241.61 640.665 1242.34 625.44 1241.73 L 587.729 1241.63 C 582.321 1241.83 576.437 1241.84 571.166 1240.66 L 571.19 1239.69 L 575.462 1238.42 C 599.108 1227.82 604.507 1219.36 605.975 1192.8 C 606.696 1179.74 606.286 1166.75 606.207 1153.69 L 605.908 1089.96 C 605.801 1064.17 608.535 965.447 602.673 946.897 C 598.05 932.269 590.508 924.831 577.159 917.903 z"/>
<path transform="translate(0,0)" fill="rgb(61,107,92)" d="M 712.277 1240.3 C 714.424 1240.52 714.579 1241.11 714.537 1241.12 C 708.374 1242.91 676.744 1241.5 671.5 1241.53 C 655.222 1241.61 640.665 1242.34 625.44 1241.73 C 637.775 1239.13 677.959 1241.64 692.5 1240.8 C 699.124 1240.41 704.773 1241.72 712.277 1240.3 z"/>
<path transform="translate(0,0)" fill="rgb(28,58,47)" d="M 1648.51 1147.2 C 1643.55 1177.28 1633.32 1211.02 1607.32 1229.88 C 1567.5 1258.75 1512.3 1241.98 1485.19 1203.71 C 1447.88 1151.03 1459.91 1065.02 1513.69 1027.51 C 1536.49 1011.92 1564.52 1005.93 1591.7 1010.83 C 1631.43 1018.04 1645.67 1048.44 1651.24 1084.84 C 1610.04 1104.38 1564.95 1121.68 1525.62 1140.72 C 1532.14 1155.53 1542.12 1173.23 1554.89 1183.4 C 1597.26 1217.16 1632.78 1194.28 1646.11 1148.97 L 1648.51 1147.2 z"/>
<path transform="translate(0,0)" fill="rgb(255,255,255)" d="M 1546.98 1021.06 C 1576.73 1022.27 1600.37 1066.06 1595.35 1092.66 C 1593.57 1102.06 1560.64 1115.45 1551.27 1120.05 C 1542.13 1125.28 1532.88 1130.32 1523.53 1135.16 C 1515.07 1105.6 1509.3 1052 1533.99 1027.28 C 1537.44 1023.82 1542.39 1022.45 1546.98 1021.06 z"/>
<path transform="translate(0,0)" fill="rgb(28,58,47)" d="M 812.722 933.387 C 820.003 928.721 836.182 920.598 844.46 916.262 C 857.536 909.412 881.633 893.717 894.315 888.882 C 893.775 953.322 894.876 1019.19 894.869 1083.86 L 894.735 1148.97 C 894.695 1165.83 894.227 1182.43 896.393 1199.19 C 899.106 1220.18 906.356 1229.74 925.744 1237.36 C 927.566 1237.98 930.048 1238.39 930.785 1239.63 C 928.498 1239.87 926.388 1240.12 924.086 1240.2 L 807.996 1240.25 C 805.544 1240.37 803.598 1240.3 801.151 1240.23 L 801.218 1239.21 L 805.975 1237.14 C 828.139 1228.55 835.529 1215.49 835.792 1192.33 C 836.616 1119.81 836.338 1047.04 835.687 974.512 C 835.512 955.053 831.182 941.797 812.722 933.387 z"/>
<path transform="translate(0,0)" fill="rgb(200,169,110)" d="M 371.617 1099.53 L 372.409 1099.62 C 356.972 1120.94 352.438 1134.94 352.591 1161.35 C 352.778 1193.75 349.715 1221.11 332.571 1249.55 C 308.584 1289.35 269.46 1316.85 224.775 1328.61 L 224.127 1327.63 C 252.747 1302.08 271.149 1279.7 280.106 1241.06 C 288.745 1203.79 271.96 1156.77 297.498 1125.35 C 314.978 1103.85 346.108 1101.6 371.617 1099.53 z"/>
<path transform="translate(0,0)" fill="rgb(61,107,92)" d="M 403.979 883.887 C 409.999 883.201 417.677 883.174 423.842 882.97 C 420.666 884.137 417.533 885.403 414.308 886.573 C 373.065 904.683 349.378 925.266 345.077 971.389 C 314.269 973.002 299.686 975.14 270.655 985.254 C 287.088 919.699 338.036 885.24 403.979 883.887 z"/>
<path transform="translate(0,0)" fill="rgb(120,138,132)" d="M 403.979 883.887 C 409.999 883.201 417.677 883.174 423.842 882.97 C 420.666 884.137 417.533 885.403 414.308 886.573 C 411.4 883.181 409.699 884.5 403.979 883.887 z"/>
<path transform="translate(0,0)" fill="rgb(61,107,92)" d="M 748.095 1129.84 C 748.23 1136.63 747.828 1142.68 747.07 1149.41 L 745.179 1131.83 L 748.095 1129.84 z"/>
<path transform="translate(0,0)" fill="rgb(61,107,92)" d="M 754.955 1012.47 L 757.026 1010.3 C 756.83 1014.69 756.212 1019.03 756.1 1023.43 L 753.017 1023.22 C 753.95 1019.14 754.842 1016.63 754.955 1012.47 z"/>
<path transform="translate(0,0)" fill="rgb(61,107,92)" d="M 166.771 1086.35 L 170.27 1085.05 C 169.559 1086.68 167.098 1094.47 166.511 1095.03 L 166.509 1095.08 C 165.6 1093.78 166.286 1087.99 166.771 1086.35 z"/>
<path transform="translate(0,0)" fill="rgb(157,158,165)" d="M 1646.11 1148.97 C 1646.32 1147.92 1647.45 1140.38 1648.61 1140.21 L 1648.76 1140.34 C 1649.4 1142.37 1649.12 1145.15 1648.51 1147.2 L 1646.11 1148.97 z"/>
<path transform="translate(0,0)" fill="rgb(157,158,165)" d="M 754.955 1012.47 C 755.017 1011.85 755.717 1003.47 757.276 1004.57 C 757.643 1005.6 757.1 1009.13 757.026 1010.3 L 754.955 1012.47 z"/>
<path transform="translate(0,0)" fill="rgb(122,121,125)" d="M 800.554 1008.89 C 800.794 1009.76 801.768 1012.83 800.658 1013.37 C 799.98 1013.01 799.893 1012.51 799.583 1011.96 C 799.302 1011.48 799.011 1010.99 798.712 1010.52 L 800.554 1008.89 z"/>
</svg>